<?xml version="1.0" encoding="UTF-8" standalone="no"?>
<!DOCTYPE svg PUBLIC "-//W3C//DTD SVG 1.1//EN" "http://www.w3.org/Graphics/SVG/1.1/DTD/svg11.dtd">
<!-- Created with Vectornator (http://vectornator.io/) -->
<svg height="100%" stroke-miterlimit="10" style="fill-rule:nonzero;clip-rule:evenodd;stroke-linecap:round;stroke-linejoin:round;" version="1.1" viewBox="0 0 240.975 85.05" width="100%" xml:space="preserve" xmlns="http://www.w3.org/2000/svg" xmlns:vectornator="http://vectornator.io" xmlns:xlink="http://www.w3.org/1999/xlink">
<defs/>
<g id="Layer-1" vectornator:layerName="Layer 1">
<path d="M152.867 23.1869C152.418 23.3747 152.193 29.7581 152.193 42.3373C152.193 54.9164 152.328 61.2998 152.597 61.4876C152.867 61.6753 154.978 61.7223 158.932 61.6284C162.885 61.5345 164.862 60.6897 164.862 59.0938C164.862 58.2959 164.862 57.4979 164.862 56.7C163.559 56.7 162.256 56.7 160.953 56.7C159.65 56.7 158.348 56.7 157.045 56.7C157.09 51.3492 157.135 45.9983 157.18 40.6475C157.269 29.9459 157.269 24.3603 157.18 23.891C157.09 23.4216 156.461 23.14 155.293 23.0461C154.125 22.9522 153.316 22.9992 152.867 23.1869Z" fill="#2975a6" fill-rule="nonzero" opacity="1" stroke="none" vectornator:layerName="Curve 3"/>
<path d="M71.3289 23.3277C70.7898 23.4216 70.4304 23.6094 70.2507 23.891C70.071 24.1726 69.1276 26.9888 67.4204 32.3397C66.5669 35.0151 65.7133 37.6905 64.8597 40.3659C64.8148 37.6435 64.7699 34.9212 64.725 32.1988C64.6351 26.7541 64.5003 23.9379 64.3206 23.7502C64.141 23.5624 63.3772 23.4685 62.0295 23.4685C60.6818 23.4685 59.918 23.5624 59.7383 23.7502C59.5587 23.9379 59.4688 30.1336 59.4688 42.3373C59.4688 54.5409 59.6036 60.8774 59.8731 61.3468C60.1427 61.8161 60.8165 62.0508 61.8947 62.0508C62.9729 62.0508 63.6917 61.8631 64.0511 61.4876C64.4105 61.1121 64.5902 58.0612 64.5902 52.3349C64.5902 49.4717 64.5902 46.6085 64.5902 43.7454C64.68 43.7454 64.7699 43.7454 64.8597 43.7454C65.0394 43.7454 66.0278 46.6085 67.8248 52.3349C69.6217 58.0612 70.7449 61.1121 71.1941 61.4876C71.6433 61.8631 72.5418 62.0508 73.8896 62.0508C75.2373 62.0508 76.001 61.957 76.1807 61.7692C76.3604 61.5815 75.2822 58.2959 72.9462 51.9124C70.6101 45.529 70.4753 39.4272 72.5418 33.607C74.6084 27.7868 75.6416 24.642 75.6416 24.1726C75.6416 23.7032 75.0576 23.4216 73.8896 23.3277C72.7215 23.2339 71.868 23.2339 71.3289 23.3277Z" fill="#2975a6" fill-rule="nonzero" opacity="1" stroke="none" vectornator:layerName="Curve 4"/>
<path d="M176.317 31.9172C174.61 37.3619 172.679 42.9005 170.522 48.5329C168.366 54.1654 167.108 57.5918 166.749 58.8122C166.389 60.0325 166.254 60.7835 166.344 61.0651C166.434 61.3468 167.153 61.4876 168.501 61.4876C169.848 61.4876 171.645 58.155 173.891 51.49C176.138 44.8249 177.485 41.07 177.935 40.2251C178.384 39.3802 179.372 36.6109 180.9 31.9172C182.427 27.2235 183.146 24.6889 183.056 24.3134C182.966 23.9379 182.247 23.7502 180.9 23.7502C179.552 23.7502 178.025 26.4725 176.317 31.9172Z" fill="#f2c230" fill-rule="nonzero" opacity="1" stroke="none" vectornator:layerName="Curve 5"/>
<path d="M98.0105 23.749C97.8308 23.9368 97.694 25.3393 97.6042 27.9678C97.5144 30.5962 97.4792 36.7986 97.4792 46.5615C97.4792 56.3244 97.5495 61.3112 97.7292 61.499C97.9089 61.6868 98.694 61.7803 100.042 61.7803C101.389 61.7803 102.178 61.2504 102.448 60.2178C102.718 59.1851 102.819 56.5982 102.729 52.4678C102.639 48.3373 103.495 46.1868 105.292 45.999C107.089 45.8113 108.288 45.5619 108.917 45.2803C109.546 44.9986 110.159 44.5935 110.698 44.0303C111.237 43.467 111.753 42.2826 112.292 40.499C112.831 38.7154 113.104 36.596 113.104 34.1553C113.104 31.7145 112.932 29.9069 112.573 28.6865C112.214 27.4661 111.839 26.6246 111.479 26.1553C111.12 25.6859 110.538 25.2184 109.729 24.749C108.921 24.2796 106.831 23.9368 103.417 23.749C100.002 23.5613 98.1902 23.5613 98.0105 23.749ZM103.135 28.6865C103.315 28.5926 103.932 28.6238 105.01 28.8115C106.089 28.9993 106.874 29.5603 107.323 30.499C107.772 31.4378 107.909 33.1832 107.729 35.7178C107.55 38.2524 107.003 39.7484 106.104 40.2178C105.206 40.6871 104.385 40.8741 103.667 40.7803C102.948 40.6864 102.639 38.6917 102.729 34.749C102.819 30.8063 102.956 28.7804 103.135 28.6865Z" fill="#2975a6" fill-rule="nonzero" opacity="1" stroke="none" vectornator:layerName="Curve 6"/>
<path d="M116.354 23.749C116.175 23.9368 116.038 25.3393 115.948 27.9678C115.858 30.5962 115.792 36.7986 115.792 46.5615C115.792 56.3244 115.928 61.3112 116.198 61.499C116.468 61.6868 117.253 61.7803 118.51 61.7803C119.768 61.7803 120.522 61.2504 120.792 60.2178C121.061 59.1851 121.163 56.5671 121.073 52.3428C120.983 48.1184 121.838 45.9366 123.635 45.8428C125.432 45.7489 126.632 45.5619 127.26 45.2803C127.889 44.9986 128.471 44.5935 129.01 44.0303C129.55 43.467 130.096 42.2826 130.635 40.499C131.175 38.7154 131.448 36.596 131.448 34.1553C131.448 31.7145 131.245 29.9069 130.885 28.6865C130.526 27.4661 130.182 26.6246 129.823 26.1553C129.464 25.6859 128.882 25.2184 128.073 24.749C127.264 24.2796 125.143 23.9368 121.729 23.749C118.315 23.5613 116.534 23.5613 116.354 23.749ZM121.479 28.5303C122.018 28.5772 122.534 28.6396 123.073 28.6865C124.151 28.7804 124.87 28.9985 125.229 29.374C125.589 29.7495 125.862 30.2794 126.042 30.9365C126.221 31.5936 126.221 33.1832 126.042 35.7178C125.862 38.2524 125.315 39.7484 124.417 40.2178C123.518 40.6871 122.729 40.8741 122.01 40.7803C121.292 40.6864 121.018 38.6293 121.198 34.5928C121.288 32.5745 121.389 30.5486 121.479 28.5303Z" fill="#2975a6" fill-rule="nonzero" opacity="1" stroke="none" vectornator:layerName="Curve 7"/>
<path d="M47.7435 34.311C43.1612 36.8456 40.7802 38.2537 40.6005 38.5353C40.4208 38.817 40.331 39.7557 40.331 41.3516C40.331 42.9474 40.3759 43.8862 40.4657 44.1678C40.5556 44.4494 43.0264 45.8575 47.8783 48.3921C50.3042 49.6594 52.7301 50.9267 55.1561 52.194C55.201 51.3022 55.2459 50.4104 55.2908 49.5186C55.3807 47.735 53.8083 45.9514 50.5738 44.1678C48.9565 43.276 47.3392 42.3842 45.7219 41.4924C47.2943 40.5536 48.8666 39.6149 50.439 38.6762C53.5837 36.7987 55.201 35.1089 55.2908 33.607C55.3807 32.105 55.2908 31.2132 55.0213 30.9315C54.7517 30.6499 52.3258 31.7764 47.7435 34.311Z" fill="#f2c230" fill-rule="nonzero" opacity="1" stroke="none" vectornator:layerName="Curve 8"/>
<path d="M185.347 33.1845C185.347 34.9681 187.009 36.7517 190.334 38.5353C191.996 39.4272 193.658 40.319 195.32 41.2108C193.658 42.1495 191.996 43.0882 190.334 44.027C187.009 45.9045 185.347 47.6881 185.347 49.3778C185.347 51.0675 185.482 51.9594 185.752 52.0532C186.021 52.1471 188.312 51.0206 192.625 48.6738C196.938 46.3269 199.319 44.9657 199.768 44.5902C200.217 44.2147 200.487 43.6984 200.577 43.0413C200.666 42.3842 200.666 41.4454 200.577 40.2251C200.487 39.0047 200.352 38.3007 200.172 38.1129C199.993 37.9252 197.477 36.6109 192.625 34.1702C190.199 32.9498 187.773 31.7295 185.347 30.5091C185.347 31.4009 185.347 32.2927 185.347 33.1845Z" fill="#f2c230" fill-rule="nonzero" opacity="1" stroke="none" vectornator:layerName="Curve 9"/>
<path d="M86.0105 23.1865C83.9439 23.1865 82.7448 23.467 82.3855 24.0303C82.0261 24.5935 81.0692 30.9205 79.5417 43.0303C79.0117 47.2325 78.2605 53.499 78.2605 53.499C78.2605 53.499 77.4244 61.3764 77.5417 61.499C77.7214 61.6868 78.5103 61.7803 79.948 61.7803C81.3855 61.7803 82.3425 60.1595 82.7917 56.9678C83.241 53.776 84.3697 52.1554 86.1667 52.0615C87.9637 51.9676 89.0612 53.4948 89.5105 56.6865C89.9597 59.8782 90.9518 61.5301 92.4792 61.624C94.0066 61.7179 94.8269 61.1569 94.9167 59.9365C95.0066 58.7161 94.1863 52.4827 92.4792 41.2178C90.7721 29.9529 89.78 24.1245 89.5105 23.749C89.2409 23.3735 88.077 23.1865 86.0105 23.1865ZM85.8855 30.7803C86.2449 33.4557 86.5886 36.1361 86.948 38.8115C87.3074 41.4869 87.6823 44.1673 88.0417 46.8428C87.3678 46.8428 86.6843 46.8428 86.0105 46.8428C85.3366 46.8428 84.6843 46.8428 84.0105 46.8428C84.3249 44.1674 84.6335 41.4869 84.948 38.8115C85.2624 36.1361 85.571 33.4557 85.8855 30.7803Z" fill="#2975a6" fill-rule="nonzero" opacity="1" stroke="none" vectornator:layerName="Curve 10"/>
<path d="M140.323 23.1865C138.167 23.1865 136.932 23.7475 136.573 24.874C136.214 26.0005 135.292 32.3275 133.854 43.874C132.417 55.4205 131.799 61.3112 131.979 61.499C132.159 61.6868 132.913 61.7803 134.26 61.7803C135.608 61.7803 136.393 61.6868 136.573 61.499C136.753 61.3113 137.061 59.6593 137.51 56.5615C137.96 53.4637 139.089 51.9053 140.885 51.9053C142.682 51.9053 143.745 53.4948 144.104 56.6865C144.464 59.8782 145.354 61.5301 146.792 61.624C148.229 61.7179 149.05 61.7179 149.229 61.624C149.409 61.5301 149.51 60.9691 149.51 59.9365C149.51 58.9039 148.655 52.7015 146.948 41.3428C145.241 29.984 144.249 24.1245 143.979 23.749C143.71 23.3735 142.479 23.1865 140.323 23.1865ZM140.323 30.7803C140.682 33.4557 141.057 36.1361 141.417 38.8115C141.776 41.4869 142.12 44.1673 142.479 46.8428C141.805 46.8428 141.153 46.8428 140.479 46.8428C139.805 46.8428 139.122 46.8428 138.448 46.8428C138.762 44.1674 139.071 41.4869 139.385 38.8115C139.7 36.1361 140.008 33.4557 140.323 30.7803Z" fill="#2975a6" fill-rule="nonzero" opacity="1" stroke="none" vectornator:layerName="Curve 11"/>
</g>
</svg>
